<svg xmlns="http://www.w3.org/2000/svg" viewBox="0 0 24 24"><path fill="#0092E4" d="M5.64,17l-.71.71a1,1,0,0,0,0,1.41,1,1,0,0,0,1.41,0l.71-.71A1,1,0,0,0,5.64,17ZM5,12a1,1,0,0,0-1-1H3a1,1,0,0,0,0,2H4A1,1,0,0,0,5,12Zm7-7a1,1,0,0,0,1-1V3a1,1,0,0,0-2,0V4A1,1,0,0,0,12,5ZM5.64,7.05a1,1,0,0,0,.7.29,1,1,0,0,0,.71-.29,1,1,0,0,0,0-1.41l-.71-.71A1,1,0,0,0,4.93,6.34Zm12,.29a1,1,0,0,0,.7-.29l.71-.71a1,1,0,1,0-1.41-1.41L17,5.64a1,1,0,0,0,0,1.41A1,1,0,0,0,17.66,7.34ZM21,11H20a1,1,0,0,0,0,2h1a1,1,0,0,0,0-2Zm-9,8a1,1,0,0,0-1,1v1a1,1,0,0,0,2,0V20A1,1,0,0,0,12,19ZM18.36,17A1,1,0,0,0,17,18.36l.71.71a1,1,0,0,0,1.41,0,1,1,0,0,0,0-1.41ZM12,6.5A5.5,5.5,0,1,0,17.5,12,5.51,5.51,0,0,0,12,6.5Zm0,9A3.5,3.5,0,1,1,15.5,12,3.5,3.5,0,0,1,12,15.5Z"/></svg>

















 <!-- <svg class="theme-icon" width="40" height="40" viewBox="0 0 21 21" fill="none">
                        <path class="shape"
                            d="M9.86516 4.93063C8.77736 4.93063 7.714 5.2532 6.80952 5.85755C5.90505 6.46189 5.2001 7.32088 4.78382 8.32588C4.36754 9.33087 4.25862 10.4367 4.47084 11.5036C4.68306 12.5705 5.20688 13.5505 5.97607 14.3197C6.74526 15.0889 7.72527 15.6127 8.79216 15.8249C9.85906 16.0372 10.9649 15.9282 11.9699 15.512C12.9749 15.0957 13.8339 14.3907 14.4382 13.4863C15.0426 12.5818 15.3652 11.5184 15.3652 10.4306C15.3625 8.97276 14.7822 7.57534 13.7513 6.54447C12.7205 5.51359 11.323 4.93327 9.86516 4.93063ZM9.86516 13.9306C9.17293 13.9306 8.49624 13.7254 7.92067 13.3408C7.34509 12.9562 6.89649 12.4096 6.63158 11.77C6.36667 11.1305 6.29736 10.4268 6.43241 9.74782C6.56746 9.06889 6.9008 8.44525 7.39029 7.95576C7.87977 7.46628 8.50341 7.13293 9.18235 6.99788C9.86128 6.86283 10.565 6.93215 11.2046 7.19705C11.8441 7.46196 12.3907 7.91057 12.7753 8.48614C13.1599 9.06171 13.3652 9.7384 13.3652 10.4306C13.3652 11.3589 12.9964 12.2491 12.34 12.9055C11.6837 13.5619 10.7934 13.9306 9.86516 13.9306Z"
                            fill="var(--yellow-color)" />
                        <path class="dot"
                            d="M15.64 5.84013C15.6453 5.84011 15.6506 5.84005 15.6559 5.83994C15.409 5.82775 15.1753 5.72453 15 5.55013C14.8138 5.36277 14.7092 5.10932 14.7092 4.84513C14.7092 4.58095 14.8138 4.3275 15 4.14014L15.64 3.43014C15.7297 3.32546 15.84 3.24043 15.964 3.18041C16.0881 3.12039 16.2232 3.08666 16.361 3.08134C16.4987 3.07602 16.636 3.09922 16.7643 3.1495C16.8927 3.19977 17.0092 3.27603 17.1067 3.37349C17.2041 3.47094 17.2804 3.58749 17.3307 3.71581C17.3809 3.84414 17.4041 3.98147 17.3988 4.11919C17.3935 4.25691 17.3598 4.39204 17.2997 4.51611C17.2397 4.64017 17.1547 4.75049 17.05 4.84013L16.34 5.55013C16.1575 5.73114 15.9125 5.83478 15.6559 5.83994L15.66 5.84013H15.64Z"
                            fill="var(--yellow-color)" />
                        <path class="dot"
                            d="M4.34001 5.73104C4.07767 5.72994 3.82627 5.62579 3.64001 5.44105L2.93001 4.73105C2.76619 4.53975 2.68058 4.29367 2.6903 4.042C2.70002 3.79032 2.80435 3.55158 2.98245 3.37349C3.16054 3.19539 3.39928 3.09106 3.65096 3.08134C3.90264 3.07162 4.14871 3.15722 4.34001 3.32105L5.05001 4.03105C5.23626 4.21841 5.34081 4.47186 5.34081 4.73605C5.34081 5.00023 5.23626 5.25369 5.05001 5.44105C4.95657 5.53373 4.84576 5.60705 4.72392 5.65681C4.60208 5.70658 4.47162 5.73181 4.34001 5.73104Z"
                            fill="var(--yellow-color)" />
                        <path class="dot"
                            d="M10.6341 3.13724C10.4466 3.32477 10.1922 3.43013 9.92703 3.43013C9.66181 3.43013 9.40745 3.32477 9.21992 3.13724C9.03238 2.9497 8.92703 2.69535 8.92703 2.43013V1.43013C8.92703 1.16491 9.03238 0.910559 9.21992 0.723022C9.40745 0.535486 9.66181 0.43013 9.92703 0.43013C10.1922 0.43013 10.4466 0.535486 10.6341 0.723022C10.8217 0.910559 10.927 1.16491 10.927 1.43013V2.43013C10.927 2.69535 10.8217 2.9497 10.6341 3.13724Z"
                            fill="var(--yellow-color)" />
                        <path class="dot"
                            d="M2.70712 9.79602C2.89466 9.98356 3.00002 10.2379 3.00002 10.5031C3.00002 10.7683 2.89466 11.0227 2.70712 11.2102C2.51958 11.3978 2.26523 11.5031 2.00002 11.5031H1.00002C0.734799 11.5031 0.480446 11.3978 0.29291 11.2102C0.105373 11.0227 1.52588e-05 10.7683 1.52588e-05 10.5031C1.52588e-05 10.2379 0.105373 9.98356 0.29291 9.79602C0.480446 9.60848 0.734799 9.50313 1.00002 9.50313H2.00002C2.26523 9.50313 2.51958 9.60848 2.70712 9.79602Z"
                            fill="var(--yellow-color)" />
                        <path class="dot"
                            d="M18.05 9.50313H19.05C19.3152 9.50313 19.5696 9.60848 19.7571 9.79602C19.9447 9.98356 20.05 10.2379 20.05 10.5031C20.05 10.7683 19.9447 11.0227 19.7571 11.2102C19.5696 11.3978 19.3152 11.5031 19.05 11.5031H18.05C17.7848 11.5031 17.5305 11.3978 17.3429 11.2102C17.1554 11.0227 17.05 10.7683 17.05 10.5031C17.05 10.2379 17.1554 9.98356 17.3429 9.79602C17.5305 9.60848 17.7848 9.50313 18.05 9.50313Z"
                            fill="var(--yellow-color)" />
                        <path class="dot"
                            d="M10.6341 20.2075C10.4466 20.395 10.1922 20.5003 9.92703 20.5003C9.66181 20.5003 9.40745 20.395 9.21992 20.2075C9.03238 20.0199 8.92703 19.7656 8.92703 19.5003V18.5003C8.92703 18.2351 9.03238 17.9808 9.21992 17.7932C9.40745 17.6057 9.66181 17.5003 9.92703 17.5003C10.1922 17.5003 10.4466 17.6057 10.6341 17.7932C10.8217 17.9808 10.927 18.2351 10.927 18.5003V19.5003C10.927 19.7656 10.8217 20.0199 10.6341 20.2075Z"
                            fill="var(--yellow-color)" />
                        <path class="dot"
                            d="M3.34651 17.9493C3.35182 17.9492 3.35713 17.9492 3.36243 17.9491C3.11553 17.9369 2.88185 17.8337 2.70652 17.6593C2.52027 17.4719 2.41573 17.2185 2.41573 16.9543C2.41573 16.6901 2.52027 16.4366 2.70652 16.2493L3.34651 15.5393C3.43616 15.4346 3.54648 15.3496 3.67054 15.2895C3.7946 15.2295 3.92975 15.1958 4.06747 15.1905C4.20519 15.1851 4.34252 15.2084 4.47084 15.2586C4.59917 15.3089 4.71572 15.3852 4.81317 15.4826C4.91063 15.5801 4.98688 15.6966 5.03716 15.8249C5.08743 15.9533 5.11064 16.0906 5.10532 16.2283C5.1 16.366 5.06627 16.5012 5.00625 16.6252C4.94623 16.7493 4.8612 16.8596 4.75652 16.9493L4.04652 17.6593C3.86402 17.8403 3.619 17.9439 3.36243 17.9491L3.36652 17.9493H3.34651Z"
                            fill="var(--yellow-color)" />
                        <path class="dot"
                            d="M16.5333 17.7798C16.271 17.7787 16.0196 17.6746 15.8333 17.4898L15.1233 16.7798C14.9595 16.5885 14.8739 16.3424 14.8836 16.0908C14.8933 15.8391 14.9977 15.6004 15.1758 15.4223C15.3538 15.2442 15.5926 15.1398 15.8443 15.1301C16.0959 15.1204 16.342 15.206 16.5333 15.3698L17.2433 16.0798C17.4296 16.2672 17.5341 16.5206 17.5341 16.7848C17.5341 17.049 17.4296 17.3025 17.2433 17.4898C17.1499 17.5825 17.0391 17.6558 16.9172 17.7056C16.7954 17.7554 16.6649 17.7806 16.5333 17.7798Z"
                            fill="var(--yellow-color)" />
                    </svg> -->


                    <svg xmlns="http://www.w3.org/2000/svg" width="24" height="24" viewBox="0 0 24 24" fill="none"
                        stroke="currentColor" stroke-width="2" stroke-linecap="round" stroke-linejoin="round">
                        <mask id="mask">
                            <rect x="0" y="0" width="100%" height="100%" fill="white" />
                        </mask>
                        <circle fill="black" cx="12" cy="12" r="5" mask="url(#mask)" />
                        <g stroke="currentColor">
                            <line x1="12" y1="1" x2="12" y2="3" />
                            <line x1="12" y1="21" x2="12" y2="23" />
                            <line x1="4.22" y1="4.22" x2="5.64" y2="5.64" />
                            <line x1="18.36" y1="18.36" x2="19.78" y2="19.78" />
                            <line x1="1" y1="12" x2="3" y2="12" />
                            <line x1="21" y1="12" x2="23" y2="12" />
                            <line x1="4.22" y1="19.78" x2="5.64" y2="18.36" />
                            <line x1="18.36" y1="5.64" x2="19.78" y2="4.22" />
                        </g>
                    </svg>
