<svg width="78" height="90" viewBox="0 0 78 90" fill="none" xmlns="http://www.w3.org/2000/svg">
<path d="M39 0L0 22V67L39 90L78 68V23L39 0Z" fill="#020C1B"/>
<path d="M40.6795 20.756C40.6009 20.638 40.4829 20.461 40.3255 20.225C40.2075 19.9497 40.1879 19.7727 40.2665 19.694C40.3452 19.6154 40.4632 19.635 40.6205 19.753C40.8172 19.871 40.9352 19.9497 40.9745 19.989C41.6825 20.5004 42.3315 21.2084 42.9215 22.113C43.5509 23.0177 44.1015 24.0207 44.5735 25.122C45.0849 26.184 45.5372 27.305 45.9305 28.485C46.3239 29.665 46.6385 30.786 46.8745 31.848C47.4645 34.444 47.9562 37.0007 48.3495 39.518C48.7822 42.0354 48.9985 44.6314 48.9985 47.306C48.9985 47.3847 48.9985 47.6207 48.9985 48.014C49.0379 48.4074 48.9789 48.6434 48.8215 48.722C48.7035 48.6434 48.5659 48.4467 48.4085 48.132C48.2905 47.8174 48.2119 47.601 48.1725 47.483C47.7005 46.0277 47.2679 44.3757 46.8745 42.527C46.5205 40.639 46.1862 38.928 45.8715 37.394C45.6355 36.214 45.4192 35.093 45.2225 34.031C45.0259 32.9297 44.7899 31.8677 44.5145 30.845C44.2785 29.8224 43.9835 28.7997 43.6295 27.777C43.3149 26.715 42.9215 25.6137 42.4495 24.473C42.3709 24.3157 42.2332 24.0404 42.0365 23.647C41.8792 23.2537 41.7022 22.8604 41.5055 22.467C41.3089 22.0737 41.1319 21.7197 40.9745 21.405C40.8172 21.051 40.7189 20.8347 40.6795 20.756ZM54.8395 64.475C54.4069 64.239 54.1119 64.0817 53.9545 64.003C53.7972 63.9637 53.5022 63.8064 53.0695 63.531C52.1255 62.9804 51.2602 62.2724 50.4735 61.407C49.6869 60.5024 48.9789 59.519 48.3495 58.457C47.7202 57.395 47.1499 56.274 46.6385 55.094C46.1665 53.8747 45.7535 52.675 45.3995 51.495C44.6129 52.0064 43.6689 52.321 42.5675 52.439C41.5055 52.5177 40.5222 52.557 39.6175 52.557C38.4769 52.557 37.3362 52.5177 36.1955 52.439C35.0942 52.3604 33.9732 52.321 32.8325 52.321C31.7312 54.3664 30.6889 56.3527 29.7055 58.28C28.7615 60.168 28.0142 61.938 27.4635 63.59C27.4635 63.6294 27.4439 63.708 27.4045 63.826C27.3652 63.9834 27.3062 64.062 27.2275 64.062C27.1095 64.062 27.0505 63.9244 27.0505 63.649C27.0505 63.3737 27.0505 63.1967 27.0505 63.118C27.0505 61.5447 27.4242 59.7944 28.1715 57.867C28.9582 55.9004 29.8235 53.973 30.7675 52.085L29.8825 52.026C29.6465 52.5767 29.3122 53.3437 28.8795 54.327C28.4862 55.3104 28.0929 56.333 27.6995 57.395C27.3455 58.457 27.0112 59.4797 26.6965 60.463C26.4212 61.4464 26.2835 62.233 26.2835 62.823C26.2835 62.941 26.2245 63 26.1065 63C25.9492 63 25.8312 62.882 25.7525 62.646C25.6739 62.3707 25.5952 62.0757 25.5165 61.761C25.4772 61.4464 25.4379 61.1317 25.3985 60.817C25.3985 60.463 25.3985 60.227 25.3985 60.109C25.3985 58.7324 25.5755 57.2967 25.9295 55.802C26.2835 54.268 26.7555 52.8717 27.3455 51.613L26.5785 51.495C26.2245 52.3604 25.8902 53.2257 25.5755 54.091C25.2609 54.917 24.9855 55.7824 24.7495 56.687C24.7495 56.7657 24.7299 56.864 24.6905 56.982C24.6512 57.1 24.5922 57.1394 24.5135 57.1C24.4349 56.9427 24.3759 56.7657 24.3365 56.569C24.3365 56.333 24.3365 56.1364 24.3365 55.979C24.3365 54.327 24.6315 52.734 25.2215 51.2C25.4182 50.8067 25.6149 50.61 25.8115 50.61C26.6375 50.374 27.4635 50.2364 28.2895 50.197C29.1549 50.1577 30.0399 50.138 30.9445 50.138C32.9112 50.138 34.8582 50.2954 36.7855 50.61C38.7129 50.8854 40.6402 51.023 42.5675 51.023C43.5115 51.023 44.3769 50.9444 45.1635 50.787L45.0455 49.843C44.6129 49.961 44.1409 50.0397 43.6295 50.079C43.1575 50.1184 42.7052 50.138 42.2725 50.138C40.7385 50.138 39.1455 49.9807 37.4935 49.666C35.8809 49.3514 34.3272 48.9777 32.8325 48.545C32.7539 48.4664 32.5965 48.4074 32.3605 48.368C32.1245 48.2894 32.0065 48.191 32.0065 48.073C32.0065 47.9944 32.1245 47.9354 32.3605 47.896C32.5965 47.8174 32.7539 47.778 32.8325 47.778C33.3832 47.7387 33.9142 47.719 34.4255 47.719C34.9762 47.6797 35.5269 47.66 36.0775 47.66C36.9822 47.66 37.8869 47.6797 38.7915 47.719C39.6962 47.719 40.6205 47.719 41.5645 47.719C42.0365 47.719 42.5282 47.719 43.0395 47.719C43.5509 47.719 44.0425 47.6994 44.5145 47.66L44.3965 47.011H43.6295C41.7415 47.011 39.8535 46.834 37.9655 46.48C36.1169 46.126 34.2485 45.949 32.3605 45.949C30.7479 45.949 29.3122 46.1457 28.0535 46.539C26.8342 46.9324 25.7722 47.3847 24.8675 47.896C24.0022 48.4074 23.2942 48.9187 22.7435 49.43C22.1929 49.9414 21.7995 50.315 21.5635 50.551C21.4849 50.5904 21.4455 50.61 21.4455 50.61C21.4062 50.61 21.3865 50.5707 21.3865 50.492C21.3865 50.4527 21.4062 50.4134 21.4455 50.374C22.1535 48.9974 23.0189 47.8567 24.0415 46.952C25.0642 46.008 26.3229 45.3 27.8175 44.828C29.3122 41.642 30.8462 38.4757 32.4195 35.329C34.0322 32.1824 35.7235 29.075 37.4935 26.007C37.5329 25.9284 37.6115 25.8104 37.7295 25.653C37.8475 25.4564 37.9655 25.358 38.0835 25.358C38.1229 25.3974 38.1425 25.4367 38.1425 25.476V25.594C38.1425 25.9087 38.1229 26.1447 38.0835 26.302C37.3362 29.488 36.2349 32.556 34.7795 35.506C33.3242 38.456 31.8295 41.3667 30.2955 44.238L31.4165 44.179C31.5345 43.943 31.8295 43.4317 32.3015 42.645C32.8129 41.8584 33.3439 41.052 33.8945 40.226C34.4845 39.3607 35.0155 38.5937 35.4875 37.925C35.9595 37.217 36.2545 36.863 36.3725 36.863L36.4315 37.04C36.4315 37.2367 36.3135 37.6694 36.0775 38.338C35.8415 39.0067 35.5662 39.7344 35.2515 40.521C34.9369 41.3077 34.6222 42.055 34.3075 42.763C34.0322 43.4317 33.8355 43.9037 33.7175 44.179C33.9535 44.179 34.1895 44.1987 34.4255 44.238C34.6615 44.238 34.8975 44.238 35.1335 44.238C35.8415 42.822 36.5889 41.347 37.3755 39.813C38.2015 38.2397 38.9095 36.6467 39.4995 35.034C40.0895 33.4214 40.4829 31.789 40.6795 30.137C40.9155 28.485 40.7975 26.8527 40.3255 25.24C40.3255 25.4367 40.2665 25.83 40.1485 26.42C40.0699 27.01 39.9519 27.6394 39.7945 28.308C39.6372 28.9374 39.4799 29.5077 39.3225 30.019C39.1652 30.491 39.0079 30.727 38.8505 30.727C38.7325 30.727 38.6735 30.6484 38.6735 30.491C38.7129 30.3337 38.7325 30.2354 38.7325 30.196C38.7325 29.1734 38.7915 28.1704 38.9095 27.187C39.0669 26.1644 39.1455 25.1417 39.1455 24.119C39.1455 22.7424 38.9292 21.405 38.4965 20.107C38.4965 20.0677 38.4375 19.9104 38.3195 19.635C38.2015 19.3204 38.2409 19.163 38.4375 19.163C38.5162 19.163 38.6539 19.2614 38.8505 19.458C39.2439 19.8514 39.6175 20.3824 39.9715 21.051C40.3649 21.7197 40.7189 22.4474 41.0335 23.234C41.3482 23.9814 41.6432 24.7287 41.9185 25.476C42.1939 26.2234 42.4102 26.8527 42.5675 27.364C43.0789 29.0554 43.4919 30.7664 43.8065 32.497C44.1605 34.1884 44.4555 35.8994 44.6915 37.63C44.9669 39.3214 45.2422 41.0324 45.5175 42.763C45.7929 44.4937 46.1075 46.2047 46.4615 47.896C46.8155 49.548 47.2285 51.1607 47.7005 52.734C48.2119 54.3074 48.8215 55.802 49.5295 57.218C50.2375 58.634 51.0439 59.9517 51.9485 61.171C52.8925 62.351 53.9742 63.3934 55.1935 64.298C55.3902 64.4947 55.4492 64.6127 55.3705 64.652C55.3312 64.7307 55.1542 64.6717 54.8395 64.475ZM54.7215 59.46C54.7609 59.696 54.7412 59.814 54.6625 59.814C54.5839 59.7747 54.4855 59.696 54.3675 59.578C54.2889 59.46 54.1905 59.3224 54.0725 59.165C53.9939 59.0077 53.9545 58.9094 53.9545 58.87C53.0105 57.1394 52.2632 55.389 51.7125 53.619C51.1619 51.8097 50.7292 50.0004 50.4145 48.191C50.0999 46.3424 49.8245 44.4937 49.5885 42.645C49.3919 40.757 49.1362 38.8494 48.8215 36.922C48.5462 34.9554 48.1725 32.969 47.7005 30.963C47.2285 28.957 46.5599 26.9117 45.6945 24.827C45.6552 24.7484 45.5962 24.6107 45.5175 24.414C45.4389 24.2174 45.4389 24.0994 45.5175 24.06C45.5962 24.06 45.6945 24.119 45.8125 24.237L46.0485 24.473C46.9139 25.4957 47.6809 26.8527 48.3495 28.544C49.0182 30.2354 49.6082 32.0447 50.1195 33.972C50.6309 35.8994 51.0439 37.807 51.3585 39.695C51.7125 41.583 51.9879 43.235 52.1845 44.651C52.4992 46.893 52.8335 49.253 53.1875 51.731C53.5415 54.209 53.9939 56.5494 54.5445 58.752L54.7215 59.46ZM37.1985 44.474C38.3392 44.592 39.4602 44.7297 40.5615 44.887C41.7022 45.0444 42.8429 45.1624 43.9835 45.241C43.5509 43.1564 43.1772 41.0914 42.8625 39.046C42.5479 37.0007 42.2529 34.916 41.9775 32.792C41.4662 34.8374 40.7582 36.8237 39.8535 38.751C38.9882 40.6784 38.1032 42.586 37.1985 44.474ZM56.6095 63.826C55.8229 63.472 55.1345 63.1377 54.5445 62.823C53.9545 62.469 53.4432 61.997 53.0105 61.407C52.3419 60.5024 51.8109 59.5977 51.4175 58.693C51.0635 57.7884 50.7685 56.9427 50.5325 56.156C50.4539 55.8414 50.3752 55.4874 50.2965 55.094C50.2572 54.7007 50.2769 54.504 50.3555 54.504C50.5129 54.504 50.7095 54.7597 50.9455 55.271C51.1815 55.7824 51.3979 56.215 51.5945 56.569C52.1845 57.7884 52.9319 59.0274 53.8365 60.286C54.7412 61.5054 55.7245 62.5084 56.7865 63.295C57.1012 63.5704 57.1995 63.7474 57.0815 63.826C56.9635 63.9047 56.8062 63.9047 56.6095 63.826ZM21.7405 52.498C21.7405 52.498 21.7012 52.498 21.6225 52.498H21.5635C21.5635 52.38 21.5832 52.262 21.6225 52.144C21.6619 52.026 21.7012 51.908 21.7405 51.79C22.0552 51.1214 22.3502 50.6297 22.6255 50.315C22.9402 49.961 23.4319 49.5874 24.1005 49.194C24.4939 48.958 25.0445 48.722 25.7525 48.486C26.4605 48.25 27.0309 48.132 27.4635 48.132C27.5422 48.132 27.6405 48.1517 27.7585 48.191C27.9159 48.191 27.9945 48.25 27.9945 48.368C27.9945 48.486 27.7782 48.6434 27.3455 48.84C26.9522 49.0367 26.6965 49.1744 26.5785 49.253C25.0839 50.1577 23.9825 50.846 23.2745 51.318C22.5665 51.79 22.0552 52.1834 21.7405 52.498Z" fill="#64FFDA"/>
</svg>
